# xmcd
#
# Track frame offsets:
#	150
#	12446
#	26561
#	39520
#	51840
#	64346
#	72183
#	85875
#	103667
#	118545
#	129501
#	141685
#
# Disc length: 2062 seconds
#
# Revision: 1
# Processed by: cddbd v1.5.1PL0 Copyright (c) Steve Scherf et al.
# Submitted via: audiograbber 1.82.02
#
DISCID=ad080c0c
DTITLE=Mike Dowling - Beats Workin'
DYEAR=1900
DGENRE=Blues
TTITLE0=Police Dog Blues
TTITLE1=The Train That Carried My Girl Away
TTITLE2=Beats Workin'
TTITLE3=D.W. Washburn
TTITLE4=Ace In The Hole
TTITLE5=Jan's Song
TTITLE6=Louis Collins
TTITLE7=Lonely At The Bottom
TTITLE8=Jitterbug Waltz
TTITLE9=Bottleneck March
TTITLE10=Nothin' Could Be Better
TTITLE11=Jump, Children
EXTD=
EXTT0=
EXTT1=
EXTT2=
EXTT3=
EXTT4=
EXTT5=
EXTT6=
EXTT7=
EXTT8=
EXTT9=
EXTT10=
EXTT11=
PLAYORDER=
